<svg width="122" height="152" viewBox="0 0 122 152" fill="none" xmlns="http://www.w3.org/2000/svg">
<path fill-rule="evenodd" clip-rule="evenodd" d="M111 0C49.6944 0 0 49.6944 0 111C0 172.306 49.6944 222 111 222C172.306 222 222 172.306 222 111C222 49.7019 172.306 0.00757421 111 0ZM161.906 160.089C159.914 163.361 155.65 164.383 152.393 162.391C126.33 146.463 93.5189 142.865 54.8828 151.689C51.1563 152.545 47.445 150.212 46.5967 146.485C45.7408 142.759 48.0661 139.047 51.8001 138.199C94.0794 128.542 130.352 132.7 159.611 150.575C162.868 152.583 163.906 156.832 161.906 160.089ZM175.487 129.875C172.98 133.95 167.647 135.222 163.58 132.723C133.753 114.386 88.262 109.076 52.9738 119.786C48.399 121.172 43.5666 118.589 42.173 114.022C40.7945 109.447 43.3773 104.623 47.9445 103.229C88.2545 90.9965 138.373 96.9196 172.631 117.976C176.706 120.483 177.994 125.808 175.487 129.875ZM176.653 98.3965C140.873 77.1509 81.8546 75.1967 47.6949 85.5582C42.2112 87.2246 36.4094 84.1267 34.7506 78.643C33.0919 73.1593 36.1821 67.3574 41.6734 65.6911C80.8851 53.792 146.061 56.087 187.25 80.5365C192.18 83.4678 193.801 89.8377 190.878 94.7609C187.962 99.6993 181.577 101.328 176.653 98.3965Z" fill="white"/>
</svg>
