<svg width="100" height="21" viewBox="0 0 100 21" fill="none" xmlns="http://www.w3.org/2000/svg">
<path fill-rule="evenodd" clip-rule="evenodd" d="M31.9727 5.55156C29.197 5.55156 26.9408 7.65932 26.9408 10.5686C26.9408 13.4631 29.197 15.5857 31.9727 15.5857C34.7484 15.5857 37.0046 13.4631 37.0046 10.5686C37.0046 7.67416 34.7484 5.55156 31.9727 5.55156ZM31.9727 13.6115C30.4587 13.6115 29.1376 12.3498 29.1376 10.5686C29.1376 8.75773 30.4438 7.52573 31.9727 7.52573C33.5015 7.52573 34.8078 8.75773 34.8078 10.5686C34.7929 12.3498 33.4867 13.6115 31.9727 13.6115ZM45.4505 6.67965H45.3763C44.8864 6.08592 43.9365 5.55155 42.7341 5.55155C40.2256 5.55155 37.9249 7.76322 37.9249 10.5835C37.9249 13.3889 40.2256 15.5857 42.7341 15.5857C43.9365 15.5857 44.8864 15.0513 45.3763 14.4427H45.4505V15.1701C45.4505 17.0849 44.4263 18.1091 42.7787 18.1091C41.4279 18.1091 40.5967 17.1442 40.2553 16.3279L38.3405 17.1294C38.8897 18.4653 40.3592 20.0981 42.7935 20.0981C45.3763 20.0981 47.5582 18.5841 47.5582 14.8732V5.86326H45.4653L45.4505 6.67965ZM42.9271 13.6115C41.4131 13.6115 40.1366 12.335 40.1366 10.5835C40.1366 8.8171 41.4131 7.52573 42.9271 7.52573C44.4263 7.52573 45.5989 8.8171 45.5989 10.5835C45.5989 12.3498 44.4263 13.6115 42.9271 13.6115ZM20.9886 5.55156C18.2128 5.55156 15.9567 7.65932 15.9567 10.5686C15.9567 13.4631 18.2129 15.5857 20.9886 15.5857C23.7643 15.5857 26.0205 13.4631 26.0205 10.5686C26.0205 7.67416 23.7643 5.55156 20.9886 5.55156H20.9886ZM20.9886 13.6115C19.4745 13.6115 18.1535 12.3498 18.1535 10.5686C18.1535 8.75773 19.4597 7.52573 20.9886 7.52573C22.5026 7.52573 23.8237 8.75773 23.8237 10.5686C23.8088 12.3498 22.5026 13.6115 20.9886 13.6115ZM7.91153 7.08043V9.20303H13.0028C12.8544 10.4053 12.4536 11.2811 11.845 11.8897C11.1029 12.6319 9.94508 13.4482 7.91153 13.4482C4.77957 13.4482 2.33041 10.9249 2.33041 7.79291C2.33041 4.66095 4.77957 2.13757 7.91153 2.13757C9.60368 2.13757 10.8357 2.80552 11.756 3.6516L13.2552 2.15242C11.9786 0.935255 10.2865 0.00012207 7.91153 0.00012207C3.62179 0.00012207 0 3.50317 0 7.79291C0 12.0826 3.60694 15.5857 7.91153 15.5857C10.2271 15.5857 11.9786 14.8287 13.3442 13.4037C14.7543 11.9936 15.1848 10.0194 15.1848 8.43117C15.1848 7.94134 15.1403 7.48119 15.066 7.09526L7.91153 7.08043ZM61.3478 8.75773C60.9322 7.62963 59.6556 5.5664 57.058 5.5664C54.4753 5.5664 52.323 7.59994 52.323 10.5835C52.323 13.3889 54.4456 15.6005 57.2955 15.6005C59.5962 15.6005 60.9322 14.1904 61.4814 13.374L59.7744 12.2311C59.2103 13.0623 58.4236 13.6115 57.3104 13.6115C56.1971 13.6115 55.3956 13.092 54.876 12.0975L61.5853 9.32177L61.3478 8.75773ZM54.5198 10.4202C54.4604 8.4757 56.019 7.49604 57.1471 7.49604C58.0229 7.49604 58.765 7.9265 59.0025 8.56476L54.5198 10.4202ZM49.0574 15.2888H51.2543V0.54933H49.0574V15.2888ZM71.6788 0.54933H66.4094V15.2888H68.6062V9.7077H71.6788C74.1131 9.7077 76.5177 7.94134 76.5177 5.12109C76.5177 2.31569 74.1131 0.54933 71.6788 0.54933ZM71.7382 7.62963H68.6062V2.58288H71.7382C73.3858 2.58288 74.3209 3.94847 74.3209 5.10625C74.3209 6.26404 73.3858 7.62963 71.7382 7.62963ZM77.7349 15.2888H79.9317V0.54933H77.7349V15.2888ZM85.3347 5.52187C83.7465 5.52187 82.084 6.21951 81.4012 7.77807L83.3605 8.59445C83.7762 7.77807 84.548 7.51089 85.3644 7.51089C86.5073 7.51089 87.6651 8.19368 87.68 9.41084V9.55927C87.2792 9.33662 86.4331 8.99523 85.3792 8.99523C83.2715 8.99523 81.134 10.153 81.134 12.3201C81.134 14.2943 82.8559 15.556 84.8004 15.556C86.2847 15.556 87.1011 14.8881 87.6058 14.1162H87.68V15.2591H89.8026V9.6038C89.8174 6.99136 87.8581 5.52187 85.3347 5.52187H85.3347ZM85.0675 13.6115C84.3402 13.6115 83.3457 13.2553 83.3457 12.3647C83.3457 11.2217 84.5926 10.7913 85.6761 10.7913C86.6409 10.7913 87.1011 10.9991 87.68 11.2811C87.5167 12.6467 86.3441 13.6115 85.0676 13.6115H85.0675ZM97.5508 5.84843L95.0275 12.2459H94.9532L92.3408 5.84843H89.9659L93.8845 14.7842L91.6432 19.7715H93.9439L100 5.86327H97.5508L97.5508 5.84843Z" fill="black"/>
</svg>
