<svg width="100" height="28" viewBox="0 0 100 28" fill="none" xmlns="http://www.w3.org/2000/svg">
<path fill-rule="evenodd" clip-rule="evenodd" d="M13.7503 25.2836C12.246 25.5477 10.7153 25.6269 9.13177 25.8379L4.30189 11.6918V26.445C2.79759 26.6033 1.42523 26.8144 3.05176e-05 27.0256V-1.52588e-05H4.01175L9.5012 15.3341V-1.52588e-05H13.7503V25.2836ZM22.0639 9.89705C23.7003 9.89705 26.2076 9.81786 27.7118 9.81786V14.0405C25.8379 14.0405 23.6475 14.0405 22.0639 14.1197V20.4012C24.5449 20.2429 27.0257 20.0315 29.5328 19.9523V24.0165L17.841 24.9404V-1.52588e-05H29.5328V4.22274H22.0639V9.89705ZM45.2362 4.22284H40.8551V23.6474C39.4299 23.6474 38.0047 23.6474 36.6326 23.7001V4.22284H32.2515V-1.52588e-05H45.2364L45.2362 4.22284V4.22284ZM52.0981 9.60682H57.8781V13.8295H52.0981V23.4099H47.9542V-1.52588e-05H59.7519V4.22274H52.0981V9.60682ZM66.6138 19.7149C69.0155 19.7676 71.4435 19.9526 73.7925 20.0844V24.2544C70.0185 24.0167 66.2444 23.7795 62.3911 23.7001V-1.52588e-05H66.6138V19.7149ZM77.3554 24.5447C78.7014 24.624 80.1266 24.7032 81.499 24.8613V-1.52588e-05H77.3554V24.5447ZM100 -1.52588e-05L94.6423 12.853L100 27.0256C98.4163 26.8144 96.8328 26.5241 95.2493 26.2601L92.2143 18.4482L89.1267 25.6269C87.5956 25.3628 86.1177 25.2836 84.5872 25.0724L90.024 12.6945L85.1149 -1.52588e-05H89.6541L92.4253 7.0995L95.3814 -1.52588e-05H100V-1.52588e-05Z" fill="white"/>
</svg>
