<svg width="122" height="144" viewBox="0 0 122 144" fill="none" xmlns="http://www.w3.org/2000/svg">
<g opacity="0.2">
<mask id="mask0_0_6016" style="mask-type:alpha" maskUnits="userSpaceOnUse" x="0" y="0" width="123" height="222">
<rect y="3.05176e-05" width="122.8" height="222" fill="white"/>
</mask>
<g mask="url(#mask0_0_6016)">
<path fill-rule="evenodd" clip-rule="evenodd" d="M82.51 8.60651L82.4291 53.9323L82.3481 99.258L78.6249 88.736V88.709L73.7956 189.613C78.544 202.995 81.0801 210.144 81.1071 210.171C81.134 210.198 83.832 210.36 87.0965 210.522C96.9711 211.008 109.22 212.06 118.528 213.22C120.686 213.49 122.521 213.625 122.656 213.517C122.791 213.409 122.818 167.274 122.791 110.967L122.71 8.60651H82.51V8.60651Z" fill="#B1060F" stroke="black"/>
<path fill-rule="evenodd" clip-rule="evenodd" d="M9.8 8.47164V110.94C9.8 167.301 9.85396 213.463 9.93489 213.544C10.0158 213.625 13.4962 213.274 17.705 212.815C21.9138 212.357 27.7145 211.763 30.6013 211.52C35.0259 211.142 48.2999 210.306 49.8108 210.279C50.2694 210.279 50.2964 207.986 50.3503 166.869L50.4313 123.459L53.6419 132.524C54.1275 133.927 54.2894 134.358 54.775 135.734L59.6044 34.8577C58.5791 31.9709 59.1187 33.4817 57.9586 30.1902C54.0196 19.0477 50.6741 9.63176 50.5392 9.2001L50.2694 8.44467H9.79999L9.8 8.47164Z" fill="#B1060F" stroke="black"/>
<path fill-rule="evenodd" clip-rule="evenodd" d="M82.51 8.60651L82.4291 53.9323L82.3481 99.258L78.6249 88.736V88.709L73.7956 189.613C78.544 202.995 81.0801 210.144 81.1071 210.171C81.134 210.198 83.832 210.36 87.0965 210.522C96.9711 211.008 109.22 212.06 118.528 213.22C120.686 213.49 122.521 213.625 122.656 213.517C122.791 213.409 122.818 167.274 122.791 110.967L122.71 8.60651H82.51V8.60651Z" fill="#B1060F" stroke="black"/>
<path fill-rule="evenodd" clip-rule="evenodd" d="M9.8 8.47164V110.94C9.8 167.301 9.85396 213.463 9.93489 213.544C10.0158 213.625 13.4962 213.274 17.705 212.815C21.9138 212.357 27.7145 211.763 30.6013 211.52C35.0259 211.142 48.2999 210.306 49.8108 210.279C50.2694 210.279 50.2964 207.986 50.3503 166.869L50.4313 123.459L53.6419 132.524C54.1275 133.927 54.2894 134.358 54.775 135.734L59.6044 34.8577C58.5791 31.9709 59.1187 33.4817 57.9586 30.1902C54.0196 19.0477 50.6741 9.63176 50.5392 9.2001L50.2694 8.44467H9.79999L9.8 8.47164Z" fill="#B1060F" stroke="black"/>
<path fill-rule="evenodd" clip-rule="evenodd" d="M9.79999 8.47164V65.9922L50.3234 173.479C50.3234 171.024 50.3234 169.675 50.3503 166.869L50.4313 123.459L53.6419 132.524C71.4484 183.03 81.0262 210.117 81.0801 210.171C81.1071 210.198 83.8051 210.36 87.0696 210.522C96.9441 211.008 109.193 212.06 118.501 213.22C120.659 213.49 122.494 213.625 122.629 213.517C122.71 213.436 122.764 190.827 122.764 158.91L82.4561 42.9516L82.4291 53.9323L82.3482 99.258L78.625 88.736C74.9827 78.4568 72.5546 71.577 57.9046 30.1902C53.9656 19.0477 50.6201 9.63176 50.4852 9.2001L50.2154 8.44467H9.79999V8.47165V8.47164Z" fill="url(#paint0_radial_0_6016)"/>
<path fill-rule="evenodd" clip-rule="evenodd" d="M9.79999 8.47164L50.4043 123.54V123.486L53.6149 132.551C71.4484 183.03 81.0262 210.117 81.0801 210.171C81.1071 210.198 83.8051 210.36 87.0696 210.522C96.9441 211.008 109.193 212.06 118.501 213.22C120.632 213.49 122.494 213.625 122.602 213.517L82.3482 99.2311V99.258L78.625 88.736C74.9827 78.4568 72.5546 71.577 57.9046 30.1902C53.9656 19.0477 50.6201 9.63176 50.4852 9.2001L50.2154 8.44467H30.0077L9.79999 8.47165V8.47164Z" fill="#E50914"/>
</g>
</g>
<defs>
<radialGradient id="paint0_radial_0_6016" cx="0" cy="0" r="1" gradientUnits="userSpaceOnUse" gradientTransform="translate(64.3906 109.81) rotate(-19.1007) scale(7.44501 531.701)">
<stop/>
<stop offset="1" stop-opacity="0.01"/>
</radialGradient>
</defs>
</svg>
