<svg width="100" height="28" viewBox="0 0 100 28" fill="none" xmlns="http://www.w3.org/2000/svg">
<path fill-rule="evenodd" clip-rule="evenodd" d="M9.59429 10.6092C5.6402 9.66626 4.93629 9.00448 4.93629 7.61387C4.93629 6.30014 6.17318 5.41602 8.01253 5.41602C9.79555 5.41602 11.5635 6.08738 13.4171 7.46949C13.4732 7.51134 13.5434 7.528 13.6126 7.51707C13.6818 7.50668 13.7431 7.46866 13.7836 7.41152L15.7142 4.68996C15.7936 4.57783 15.7719 4.42333 15.665 4.33773C13.459 2.56757 10.9748 1.70696 8.07108 1.70696C3.80169 1.70696 0.819521 4.26908 0.819521 7.93493C0.819521 11.866 3.39204 13.258 7.83755 14.3324C11.6213 15.204 12.2598 15.9342 12.2598 17.2394C12.2598 18.6858 10.9685 19.585 8.8904 19.585C6.58234 19.585 4.69978 18.8075 2.59379 16.9837C2.54157 16.9386 2.4699 16.9181 2.40374 16.9219C2.334 16.9277 2.27027 16.9599 2.22598 17.0133L0.0612024 19.5896C-0.0295902 19.6965 -0.0181028 19.8562 0.086924 19.9487C2.53719 22.1362 5.5508 23.2916 8.80291 23.2916C13.4035 23.2916 16.3763 20.7778 16.3763 16.8872C16.3845 13.6028 14.4183 11.7843 9.60253 10.6127L9.59429 10.6092V10.6092ZM26.7846 6.70946C24.7905 6.70946 23.1548 7.49487 21.8061 9.10422V7.29277C21.8061 7.14975 21.6901 7.03325 21.5474 7.03325H18.0068C17.8638 7.03325 17.7481 7.14975 17.7481 7.29277V27.4206C17.7481 27.5636 17.8637 27.6801 18.0068 27.6801H21.5474C21.6901 27.6801 21.8061 27.5636 21.8061 27.4206V21.0671C23.1551 22.581 24.791 23.3208 26.7846 23.3208C30.4898 23.3208 34.2407 20.4685 34.2407 15.0161C34.2462 9.56229 30.4942 6.7092 26.7887 6.7092L26.7846 6.70947V6.70946ZM30.1236 15.0161C30.1236 17.7926 28.4133 19.7301 25.9644 19.7301C23.5434 19.7301 21.7171 17.7045 21.7171 15.0161C21.7171 12.3279 23.5434 10.302 25.9644 10.302C28.3736 10.3017 30.1238 12.2838 30.1238 15.0158L30.1236 15.0161H30.1236ZM43.8545 6.70949C39.0827 6.70949 35.3444 10.3838 35.3444 15.0754C35.3444 19.7159 39.057 23.3517 43.796 23.3517C48.5847 23.3517 52.3345 19.6897 52.3345 15.0161C52.3345 10.3586 48.6098 6.71003 43.8542 6.71003L43.8545 6.70949V6.70949ZM43.8544 19.7577C41.3163 19.7577 39.4029 17.7185 39.4029 15.0147C39.4029 12.2994 41.2502 10.3291 43.7959 10.3291C46.3504 10.3291 48.2767 12.3683 48.2767 15.074C48.2767 17.7888 46.4171 19.7577 43.8547 19.7577H43.8544H43.8544ZM62.5241 7.03327H58.628V3.04992C58.628 2.90717 58.5126 2.79067 58.3696 2.79067H54.8295C54.6862 2.79067 54.57 2.90717 54.57 3.04992V7.03327H52.8677C52.7252 7.03327 52.6098 7.14975 52.6098 7.29278V10.3357C52.6098 10.4784 52.7252 10.5952 52.8677 10.5952H54.57V18.4686C54.57 21.6504 56.1537 23.2636 59.277 23.2636C60.547 23.2636 61.6006 23.0013 62.5936 22.4383C62.6743 22.3932 62.7243 22.3062 62.7243 22.2138V19.3161C62.7243 19.2267 62.6778 19.1422 62.6012 19.0954C62.5241 19.047 62.4281 19.0446 62.3491 19.0837C61.667 19.4269 61.0077 19.5852 60.2707 19.5852C59.1348 19.5852 58.628 19.0694 58.628 17.9135V10.5966H62.5241C62.6671 10.5966 62.7823 10.4801 62.7823 10.3371V7.29444C62.7877 7.15142 62.6729 7.03493 62.528 7.03493L62.5241 7.03327ZM76.0991 7.04884V6.55959C76.0991 5.12032 76.651 4.4785 77.8887 4.4785C78.6268 4.4785 79.2197 4.62507 79.8837 4.84658C79.9654 4.8723 80.0507 4.85944 80.1172 4.81048C80.1856 4.76152 80.2241 4.68305 80.2241 4.59991V1.61637C80.2241 1.50233 80.1508 1.40143 80.0409 1.36778C79.3394 1.15912 78.4419 0.945001 77.0981 0.945001C73.828 0.945001 72.0994 2.78654 72.0994 6.26861V7.01791H70.3984C70.2556 7.01791 70.1386 7.13441 70.1386 7.27716V10.3356C70.1386 10.4784 70.2556 10.5952 70.3984 10.5952H72.0994V22.7396C72.0994 22.8826 72.2148 22.9991 72.3575 22.9991H75.8981C76.0412 22.9991 76.1577 22.8826 76.1577 22.7396V10.596H79.4633L84.5272 22.7374C83.9523 24.0132 83.387 24.267 82.6153 24.267C81.9916 24.267 81.3347 24.0807 80.663 23.7132C80.5999 23.6784 80.5249 23.6727 80.4568 23.6938C80.3893 23.7175 80.3324 23.7679 80.3037 23.8335L79.1037 26.4662C79.0466 26.5906 79.0955 26.7367 79.2153 26.8012C80.4681 27.4796 81.5989 27.7692 82.9966 27.7692C85.6109 27.7692 87.0559 26.5515 88.3298 23.2753L94.4721 7.40323C94.503 7.32338 94.4937 7.23314 94.4448 7.16232C94.3961 7.09203 94.3176 7.04965 94.2317 7.04965H90.5459C90.4355 7.04965 90.3367 7.11992 90.3006 7.22357L86.5249 18.0086L82.3892 7.21646C82.3515 7.11609 82.2547 7.04963 82.1475 7.04963H76.0983L76.0991 7.04884V7.04884ZM68.2287 7.03331H64.6881C64.5451 7.03331 64.4286 7.1498 64.4286 7.29283V22.7397C64.4286 22.8827 64.5451 22.9992 64.6881 22.9992H68.2287C68.3714 22.9992 68.4882 22.8827 68.4882 22.7397V7.29391C68.4883 7.22498 68.461 7.15883 68.4123 7.11013C68.3635 7.06142 68.2973 7.03416 68.2284 7.03439L68.2287 7.03331ZM66.4785 0C65.0759 0 63.9377 1.13543 63.9377 2.53806C63.9377 3.9415 65.0761 5.07832 66.4785 5.07832C67.8806 5.07832 69.0176 3.9415 69.0176 2.53806C69.0176 1.13571 67.88 1.90757e-06 66.4799 1.90757e-06H66.4785V0ZM97.4953 11.9997C96.094 11.9997 95.0037 10.8744 95.0037 9.50786C95.0037 8.14134 96.1082 7.00317 97.5084 7.00317C98.9097 7.00317 100 8.12822 100 9.49364C100 10.8602 98.8951 11.9997 97.495 11.9997H97.4953ZM97.5089 7.25092C96.2327 7.25092 95.267 8.26549 95.267 9.50785C95.267 10.7497 96.2258 11.7506 97.4961 11.7506C98.7721 11.7506 99.7388 10.7368 99.7388 9.49363C99.7388 8.25182 98.7789 7.25092 97.51 7.25092H97.5089H97.5089ZM98.0614 9.74992L98.7662 10.7366H98.1719L97.5374 9.83143H96.9919V10.7366H96.4945V8.12116H97.6608C98.2684 8.12116 98.668 8.43209 98.668 8.95553C98.6707 9.38432 98.4219 9.64631 98.0636 9.74994H98.0614V9.74992ZM97.6403 8.5699H96.9916V9.39715H97.6403C97.964 9.39715 98.1573 9.23881 98.1573 8.98312C98.1573 8.71403 97.9632 8.56992 97.6405 8.56992H97.6403V8.5699Z" fill="white"/>
</svg>
